<svg width="64" height="64" viewBox="0 0 120 120" fill="none" xmlns="http://www.w3.org/2000/svg" role="img" aria-label="PrimeVolt Energy Systems"><defs><linearGradient id="fvN" x1="0" y1="0" x2="1" y2="1"><stop offset="0" stop-color="#15406B"/><stop offset=".55" stop-color="#0D2C4D"/><stop offset="1" stop-color="#081B30"/></linearGradient><linearGradient id="fvA" x1="0" y1="1" x2="1" y2="0"><stop offset="0" stop-color="#E0382F"/><stop offset="1" stop-color="#F58233"/></linearGradient><linearGradient id="fvB" x1="0" y1="0" x2="1" y2="1"><stop offset="0" stop-color="#FFD23F"/><stop offset="1" stop-color="#F5A100"/></linearGradient><clipPath id="fvC"><rect x="6" y="6" width="108" height="108" rx="28"/></clipPath></defs><rect x="6" y="6" width="108" height="108" rx="28" fill="url(#fvN)"/><g clip-path="url(#fvC)"><path d="M22 102 A38 38 0 0 1 98 102 Z" fill="url(#fvA)" opacity=".95"/><g stroke="#BFE0FF" stroke-width="2.4" stroke-linecap="round" fill="none" opacity=".92"><path d="M42 102 L56 44"/><path d="M78 102 L64 44"/><path d="M56 44 L60 31 L64 44"/><path d="M34 72 H86"/><path d="M40 59 H80"/><path d="M46 48 H74"/><path d="M47 98 L73 83 M74 98 L48 83 M50 81 L70 69 M71 81 L51 69"/></g><path d="M67 33 L50 67 H60 L55 97 L77 60 H64 L72 33 Z" fill="url(#fvB)"/></g></svg>