<svg width="120" height="120" viewBox="0 0 120 120" fill="none" xmlns="http://www.w3.org/2000/svg" role="img" aria-label="PrimeVolt Energy Systems"><defs><linearGradient id="opA" x1="0" y1="1" x2="1" y2="0"><stop offset="0" stop-color="#E0382F"/><stop offset="1" stop-color="#F58233"/></linearGradient><linearGradient id="opB" x1="0" y1="0" x2="1" y2="1"><stop offset="0" stop-color="#FFD23F"/><stop offset="1" stop-color="#F5A100"/></linearGradient></defs><path d="M18 100 A42 42 0 0 1 102 100 Z" fill="url(#opA)"/><g stroke="#E0382F" stroke-width="2.4" stroke-linecap="round" opacity=".8"><line x1="60" y1="40" x2="60" y2="30"/><line x1="34" y1="52" x2="27" y2="46"/><line x1="86" y1="52" x2="93" y2="46"/></g><line x1="12" y1="100" x2="108" y2="100" stroke="#0C2747" stroke-width="2.6" stroke-linecap="round"/><g stroke="#16335A" stroke-width="2.5" stroke-linecap="round" fill="none"><path d="M40 100 L55 38"/><path d="M80 100 L65 38"/><path d="M55 38 L60 24 L65 38"/><path d="M60 38 L60 24"/><path d="M31 70 H89"/><path d="M37 56 H83"/><path d="M43 44 H77"/><path d="M45 96 L74 80 M75 96 L46 80 M48 78 L72 66 M73 78 L49 66 M51 64 L69 54 M70 64 L52 54"/></g><path d="M67 30 L49 66 H60 L54 98 L77 58 H64 L73 30 Z" fill="url(#opB)" stroke="#fff" stroke-width="1.4" stroke-linejoin="round"/></svg>